<svg width="1110" height="297" viewBox="0 0 1110 297" fill="none" xmlns="http://www.w3.org/2000/svg">
<path d="M615.017 54.8363C633.507 54.8363 648.68 60.6009 660.446 72.1796C672.251 83.6117 678.079 100.219 678.079 121.831V211.856L656.788 224.622V124.091C656.788 107.643 652.637 95.2547 644.485 86.7634L644.477 86.7542C636.499 78.228 625.514 73.9231 611.395 73.9289C596.897 73.9289 585.435 78.5055 576.898 87.592C568.377 96.6609 564.033 110.075 564.027 128.007V211.896L542.452 224.644V69.6356L564.027 56.8867V80.7961C568.74 73.0701 575.47 66.7408 583.524 62.5102C592.803 57.3929 603.309 54.8423 615.017 54.8363Z" fill="#036C39"/>
<path fill-rule="evenodd" clip-rule="evenodd" d="M245.87 283.999V181.844C250.837 190.665 258.07 198.149 267.54 204.298L267.551 204.305C278.356 211.129 291.033 214.523 305.544 214.523C319.499 214.523 332.071 211.22 343.234 204.598C354.564 197.992 363.73 188.235 369.615 176.514C376.035 164.427 379.23 150.473 379.23 134.68C379.23 118.889 376.036 105.025 369.615 93.1197C363.769 81.4397 354.582 71.7625 343.22 65.3193C332.059 58.699 319.488 55.397 305.535 55.397C290.838 55.397 278.064 58.8846 267.255 65.8974C257.96 71.892 250.823 79.2862 245.87 88.081V56.8647L224.58 69.6311V296.765L245.87 283.999ZM353.801 102.419L353.81 102.437L353.82 102.454C358.759 111.407 361.25 122.136 361.25 134.68C361.25 146.999 358.76 157.832 353.811 167.206L353.807 167.214L353.802 167.223C349.384 176.006 342.534 183.333 334.068 188.331C325.657 193.087 316.14 195.472 305.491 195.466L305.482 195.466C295.562 195.554 285.798 193 277.193 188.066C268.683 183.022 261.75 175.704 257.173 166.934L257.169 166.928L257.166 166.921C252.221 157.776 249.732 147.134 249.732 134.964C249.732 122.795 252.221 112.152 257.166 103.008L257.169 103.001L257.172 102.995C261.752 94.2295 268.686 86.9145 277.193 81.8717C285.796 76.928 295.561 74.3674 305.482 74.454L305.494 74.4541L305.507 74.454C315.491 74.296 325.343 76.7583 334.079 81.5953C342.565 86.4357 349.429 93.6818 353.801 102.419Z" fill="#036C39"/>
<path fill-rule="evenodd" clip-rule="evenodd" d="M532.901 164.024L510.409 163.985L510.12 164.486C503.97 175.132 494.639 183.583 483.438 188.652C472.237 193.721 459.729 195.152 447.672 192.745C435.615 190.339 424.616 184.214 416.22 175.233C408.083 166.53 402.788 155.568 401.02 143.804H538.314V133.146L538.314 133.133C537.812 113.59 530.092 94.9255 516.641 80.7395C503.19 66.5535 484.962 57.8513 465.474 56.3116C445.986 54.7719 426.617 60.5037 411.106 72.4015C395.594 84.2992 385.038 101.52 381.474 120.741C377.91 139.963 381.59 159.823 391.805 176.491C402.02 193.159 418.046 205.454 436.79 211.003C455.535 216.553 475.671 214.964 493.314 206.544C510.956 198.123 524.856 183.467 532.33 165.404L532.901 164.024ZM421.467 89.9662C432.047 81.1249 445.396 76.2803 459.183 76.2784C472.97 76.2803 486.319 81.1249 496.899 89.9662C507.171 98.551 514.199 110.374 516.841 123.474H401.524C404.167 110.374 411.195 98.551 421.467 89.9662Z" fill="#036C39"/>
<path fill-rule="evenodd" clip-rule="evenodd" d="M1028.75 216.562H1029.75V216.548C1044.47 216.403 1057.91 213.062 1070.06 206.512L1070.07 206.507C1082.38 199.712 1092.53 189.571 1099.32 177.258C1106.42 164.637 1109.95 150.076 1109.95 133.605C1109.96 116.939 1106.43 102.378 1099.33 89.956C1092.74 77.6525 1082.66 67.5727 1070.35 60.9847C1058.14 54.0994 1044.46 50.6648 1029.34 50.6648C1014.22 50.6648 1000.54 54.1034 988.317 60.9967C976.102 67.6989 966.052 77.7481 959.35 89.9639C952.26 102.404 948.73 116.965 948.724 133.613C948.718 150.262 952.15 164.914 959.053 177.541L959.057 177.549C965.809 189.622 975.717 199.632 987.719 206.509L987.727 206.513L987.735 206.518C999.955 213.219 1013.64 216.562 1028.75 216.562ZM1028.76 196.766L1028.75 196.766L1028.75 196.766C1018.77 196.847 1008.92 194.484 1000.07 189.883C991.504 185.118 984.539 178.069 979.179 168.702C974.029 159.155 971.43 147.467 971.43 133.596C971.43 119.718 974.032 108.132 979.18 98.7896C984.534 89.2217 991.59 82.1788 1000.34 77.6166L1000.35 77.612C1009.18 72.8991 1019.04 70.4336 1029.04 70.4336C1039.05 70.4336 1048.91 72.8991 1057.74 77.612L1057.74 77.6163C1066.5 82.1856 1073.56 89.2307 1078.92 98.7958L1078.92 98.8026C1084.25 108.136 1086.95 119.717 1086.95 133.596C1086.96 147.468 1084.17 159.148 1078.63 168.685L1078.63 168.694L1078.62 168.704C1073.71 177.623 1066.37 184.967 1057.45 189.882C1048.59 194.484 1038.74 196.847 1028.76 196.766Z" fill="#036C39"/>
<path fill-rule="evenodd" clip-rule="evenodd" d="M937.907 164.763L917.296 152.328L916.85 153.399C911.454 166.365 902.236 177.378 890.424 184.974C878.751 192.432 864.563 196.187 847.81 196.187C832.996 196.187 819.66 192.728 807.777 185.825C796.086 178.921 786.879 169.051 780.156 156.186C773.44 143.332 770.064 128.331 770.064 111.154C770.064 93.9899 773.44 78.9891 780.157 66.1229L780.159 66.1176C786.883 53.0511 796.089 43.0903 807.775 36.2003C819.658 29.2907 832.995 25.8312 847.809 25.8371C864.571 25.8371 878.756 29.6877 890.415 37.3382L890.422 37.3424C902.133 44.8961 911.272 55.8304 916.627 68.6959L917.073 69.7676L937.721 57.3047L937.294 56.4739C930.21 42.7023 919.669 31.0074 906.705 22.5354C890.374 11.5183 870.732 6.03265 847.827 6.03265C828.994 6.03265 811.911 10.5471 796.604 19.5878C781.269 28.4322 769.184 40.9143 760.357 57.0111C751.524 72.9176 747.116 90.9709 747.11 111.145C747.104 131.322 751.513 149.38 760.36 165.294C768.829 180.817 781.356 193.747 796.604 202.703L796.61 202.707C811.934 211.556 829.014 215.971 847.828 215.965C870.532 215.965 890.17 210.585 906.699 199.786C919.756 191.256 930.365 179.471 937.481 165.594L937.907 164.763ZM917.467 154.508C917.57 154.267 917.672 154.026 917.773 153.784C917.722 153.906 917.671 154.028 917.619 154.15C917.569 154.27 917.518 154.389 917.467 154.508Z" fill="#036C39"/>
<path fill-rule="evenodd" clip-rule="evenodd" d="M107.23 214.479C128.441 214.481 149.175 208.193 166.812 196.41C184.449 184.628 198.195 167.88 206.313 148.284C214.431 128.689 216.556 107.127 212.419 86.3236C208.283 65.5206 198.07 46.4115 183.072 31.4129C168.075 16.4143 148.967 6.19986 128.164 2.06128C107.361 -2.07731 85.7987 0.0458822 66.2027 8.16232C46.6068 16.2788 29.8578 30.0239 18.0737 47.6595C6.28971 65.2952 3.7572e-07 86.0292 3.7572e-07 107.24C-0.00117844 121.322 2.77154 135.267 8.15985 148.278C13.5482 161.288 21.4465 173.11 31.4039 183.069C41.3613 193.027 53.1827 200.926 66.1931 206.316C79.2035 211.705 93.1481 214.479 107.23 214.479ZM153.911 177.102C140.093 186.333 123.848 191.259 107.231 191.258C96.1975 191.258 85.2726 189.084 75.0795 184.862C64.8865 180.64 55.6249 174.451 47.8238 166.649C40.0227 158.847 33.8349 149.585 29.6135 139.391C25.3922 129.198 23.22 118.273 23.2212 107.24C23.2212 90.6219 28.149 74.3775 37.3814 60.5605C46.6139 46.7436 59.7362 35.9748 75.0891 29.6159C90.4419 23.257 107.336 21.5937 123.634 24.8363C139.932 28.0788 154.903 36.0817 166.652 47.8327C178.402 59.5838 186.404 74.5552 189.644 90.8537C192.885 107.152 191.22 124.046 184.86 139.398C178.499 154.75 167.729 167.871 153.911 177.102Z" fill="#036C39"/>
</svg>
